<svg width="64" height="64" viewBox="0 0 64 64" fill="none" xmlns="http://www.w3.org/2000/svg">
  <rect width="64" height="64" rx="32" fill="url(#paint0_radial_lend)" fill-opacity="0.2"/>
  
  <!-- Main Icon Shape -->
  <path d="M48 32C48 40.8366 40.8366 48 32 48C23.1634 48 16 40.8366 16 32C16 23.1634 23.1634 16 32 16C40.8366 16 48 23.1634 48 32Z" stroke="#FF00FF" stroke-width="2"/>
  
  <!-- Money Bag -->
  <path d="M32 22C35.3137 22 38 24.2386 38 27V29H26V27C26 24.2386 28.6863 22 32 22Z" stroke="#FF00FF" stroke-width="2"/>
  <path d="M26 29L22 32V40C22 41.1046 22.8954 42 24 42H40C41.1046 42 42 41.1046 42 40V32L38 29" stroke="#FF00FF" stroke-width="2"/>
  
  <!-- Interest Symbol -->
  <path d="M32 32V36" stroke="#FF00FF" stroke-width="2" stroke-linecap="round"/>
  <path d="M32 38V38.5" stroke="#FF00FF" stroke-width="2" stroke-linecap="round"/>
  
  <!-- Glow Effects -->
  <circle cx="32" cy="32" r="15" stroke="url(#paint1_radial_lend)" stroke-width="0.5"/>
  
  <defs>
    <radialGradient id="paint0_radial_lend" cx="0" cy="0" r="1" gradientUnits="userSpaceOnUse" gradientTransform="translate(32 32) rotate(90) scale(32)">
      <stop stop-color="#FF00FF"/>
      <stop offset="1" stop-color="#FF00FF" stop-opacity="0"/>
    </radialGradient>
    <radialGradient id="paint1_radial_lend" cx="0" cy="0" r="1" gradientUnits="userSpaceOnUse" gradientTransform="translate(32 32) rotate(90) scale(20)">
      <stop stop-color="#FF00FF"/>
      <stop offset="1" stop-color="#FF00FF" stop-opacity="0"/>
    </radialGradient>
  </defs>
</svg>
